<svg class="main-svg" xmlns="http://www.w3.org/2000/svg" xmlns:xlink="http://www.w3.org/1999/xlink" width="1240" height="608" style=""><rect x="0" y="0" width="1240" height="608" style="fill: rgb(255, 255, 255); fill-opacity: 1;"/><defs id="defs-08b91a"><g class="clips"><clipPath id="clip08b91axyplot" class="plotclip"><rect width="1052" height="498"/></clipPath><clipPath class="axesclip" id="clip08b91ax"><rect x="50" y="0" width="1052" height="608"/></clipPath><clipPath class="axesclip" id="clip08b91ay"><rect x="0" y="60" width="1240" height="498"/></clipPath><clipPath class="axesclip" id="clip08b91axy"><rect x="50" y="60" width="1052" height="498"/></clipPath></g><g class="gradients"/><g class="patterns"/></defs><g class="bglayer"><rect class="bg" x="50" y="60" width="1052" height="498" style="fill: rgb(229, 236, 246); fill-opacity: 1; stroke-width: 0;"/></g><g class="layer-below"><g class="imagelayer"/><g class="shapelayer"/></g><g class="cartesianlayer"><g class="subplot xy"><g class="layer-subplot"><g class="shapelayer"/><g class="imagelayer"/></g><g class="gridlayer"><g class="x"><path class="xgrid crisp" transform="translate(174.20999999999998,0)" d="M0,60v498" style="stroke: rgb(255, 255, 255); stroke-opacity: 1; stroke-width: 1px;"/><path class="xgrid crisp" transform="translate(300.96000000000004,0)" d="M0,60v498" style="stroke: rgb(255, 255, 255); stroke-opacity: 1; stroke-width: 1px;"/><path class="xgrid crisp" transform="translate(427.71,0)" d="M0,60v498" style="stroke: rgb(255, 255, 255); stroke-opacity: 1; stroke-width: 1px;"/><path class="xgrid crisp" transform="translate(554.45,0)" d="M0,60v498" style="stroke: rgb(255, 255, 255); stroke-opacity: 1; stroke-width: 1px;"/><path class="xgrid crisp" transform="translate(681.2,0)" d="M0,60v498" style="stroke: rgb(255, 255, 255); stroke-opacity: 1; stroke-width: 1px;"/><path class="xgrid crisp" transform="translate(807.95,0)" d="M0,60v498" style="stroke: rgb(255, 255, 255); stroke-opacity: 1; stroke-width: 1px;"/><path class="xgrid crisp" transform="translate(934.69,0)" d="M0,60v498" style="stroke: rgb(255, 255, 255); stroke-opacity: 1; stroke-width: 1px;"/><path class="xgrid crisp" transform="translate(1061.44,0)" d="M0,60v498" style="stroke: rgb(255, 255, 255); stroke-opacity: 1; stroke-width: 1px;"/></g><g class="y"><path class="ygrid crisp" transform="translate(0,507.92)" d="M50,0h1052" style="stroke: rgb(255, 255, 255); stroke-opacity: 1; stroke-width: 1px;"/><path class="ygrid crisp" transform="translate(0,447.67)" d="M50,0h1052" style="stroke: rgb(255, 255, 255); stroke-opacity: 1; stroke-width: 1px;"/><path class="ygrid crisp" transform="translate(0,387.41)" d="M50,0h1052" style="stroke: rgb(255, 255, 255); stroke-opacity: 1; stroke-width: 1px;"/><path class="ygrid crisp" transform="translate(0,266.90999999999997)" d="M50,0h1052" style="stroke: rgb(255, 255, 255); stroke-opacity: 1; stroke-width: 1px;"/><path class="ygrid crisp" transform="translate(0,206.66)" d="M50,0h1052" style="stroke: rgb(255, 255, 255); stroke-opacity: 1; stroke-width: 1px;"/><path class="ygrid crisp" transform="translate(0,146.4)" d="M50,0h1052" style="stroke: rgb(255, 255, 255); stroke-opacity: 1; stroke-width: 1px;"/><path class="ygrid crisp" transform="translate(0,86.15)" d="M50,0h1052" style="stroke: rgb(255, 255, 255); stroke-opacity: 1; stroke-width: 1px;"/></g></g><g class="zerolinelayer"><path class="yzl zl crisp" transform="translate(0,327.16)" d="M50,0h1052" style="stroke: rgb(255, 255, 255); stroke-opacity: 1; stroke-width: 2px;"/></g><path class="xlines-below"/><path class="ylines-below"/><g class="overlines-below"/><g class="xaxislayer-below"/><g class="yaxislayer-below"/><g class="overaxes-below"/><g class="plot" transform="translate(50,60)" clip-path="url(#clip08b91axyplot)"><g class="scatterlayer mlayer"><g class="trace scatter trace03a803" style="stroke-miterlimit: 2; opacity: 1;"><g class="fills"/><g class="errorbars"/><g class="lines"><path class="js-line" d="M0,27.58L2.53,24.9L5.07,51.63L7.6,54.02L10.14,113.41L20.28,118.66L22.81,119.16L60.84,123.96L63.37,124.11L98.86,127.27L101.4,127.42L109,126.94L111.54,128.06L119.14,129.24L121.68,129.54L134.35,131.11L136.89,131.46L152.1,133.4L154.63,133.72L210.4,141.47L212.93,141.84L240.82,146L243.35,145.39L245.89,147.37L248.42,145.95L250.96,140.8L253.49,139.08L256.03,142.12L258.56,148.54L261.1,135.43L263.63,140.81L266.17,134.81L268.7,133.09L273.77,133.09L276.31,133.49L281.38,135.09L283.91,136.27L294.05,141.46L296.59,143.21L309.26,150.65L311.8,151.58L314.33,152.59L316.87,152.52L327.01,155.66L329.54,156.09L344.75,161.95L347.29,162.31L357.43,164.42L359.96,165.33L377.71,171.55L380.24,172.36L387.85,174.93L390.38,176.04L397.99,179.04L400.52,179.86L410.66,183.19L413.2,179.92L415.73,168.42L418.27,142.27L423.33,158.74L425.87,150.71L428.4,152.84L430.94,157.69L436.01,166.51L438.54,167.94L441.08,167.28L443.61,174.74L446.15,171.91L448.68,178.03L451.22,175.87L453.75,177.99L456.29,184.53L458.82,183.14L461.36,179.42L463.89,182.88L466.43,185.58L468.96,185.66L471.5,188.97L474.03,195.06L476.57,194.51L479.1,195.61L481.64,196.53L484.17,193.21L486.71,195.15L489.24,201.62L491.78,203.46L494.31,202.98L499.38,204.18L501.92,205.82L506.99,211.71L509.52,211.61L514.59,216.64L517.13,216.61L519.66,217.13L522.2,221.63L524.73,223.44L527.27,227.26L532.34,227.43L534.87,231.41L539.94,234.92L542.48,239.11L545.01,240.79L547.55,245.4L550.08,244.63L552.62,247.74L555.15,252.33L557.69,254.46L560.22,255.57L562.76,254L565.29,252.57L567.83,245.78L570.36,236.65L572.9,222.95L577.97,197.67L580.5,208.14L583.04,248.38L585.57,225.69L588.11,223.42L590.64,257.68L593.18,227.44L595.71,234.01L598.25,254.71L600.78,227.66L603.32,233.63L605.85,231.72L608.39,253.86L610.92,220.71L613.46,278.19L615.99,231.22L618.53,225.46L621.06,252.41L623.6,204.82L626.13,186.9L628.67,181.98L631.2,205.3L633.73,185.87L636.27,208.55L638.8,189.36L641.34,213.53L643.87,203.23L646.41,212.34L648.94,219.81L651.48,208.6L654.01,229.45L656.55,214.45L659.08,233.12L661.62,222.06L664.15,229.06L666.69,238.99L669.22,228.92L671.76,247.1L674.29,236.35L676.83,241.2L679.36,246.94L681.9,243.01L684.43,248.75L686.97,260.79L689.5,246.44L692.04,268.2L694.57,251.52L697.11,260.9L699.64,265.43L702.18,261.21L704.71,272.98L707.25,265.03L709.78,273.97L712.32,274.24L714.85,272.77L717.39,285.91L719.92,275.95L722.46,286.75L724.99,286.24L727.53,287.02L730.06,295.3L732.6,293.02L735.13,292.79L737.67,301.8L740.2,294.6L742.74,308.05L747.81,303.5L750.34,313.37L752.88,306.25L755.41,316.15L757.95,317.84L760.48,317.84L763.02,317.84L765.55,330.12L773.16,331.37L775.69,331.73L780.76,332.85L783.3,334.06L788.37,335.6L790.9,335.86L801.04,336.45L803.58,338.27L806.11,344.56L808.65,345.98L811.18,352.65L813.72,356.23L818.79,356.97L821.32,357.06L823.86,357.56L826.39,362.1L828.93,368.35L831.46,369.64L836.53,370.61L839.07,371.17L841.6,374.38L844.13,382.86L846.67,389.37L849.2,392.7L854.27,396.32L856.81,396.91L861.88,397.2L864.41,398.62L869.48,413.23L872.02,414.46L877.09,415.42L879.62,418.72L884.69,435.77L887.23,437.02L892.3,437.24L894.83,439.48L897.37,445.24L899.9,446.03L904.97,446.21L907.51,447.92L910.04,453L912.58,454L917.65,454.25L920.18,456.4L922.72,461.54L925.25,462.74L930.32,462.99L932.86,465.95L935.39,467.47L937.93,467.52L940.46,467.54L943,468.41L945.53,471.35L948.07,471.86L953.14,472.06L955.67,473.1L958.21,473.1" style="vector-effect: non-scaling-stroke; fill: none; stroke: rgb(99, 110, 250); stroke-opacity: 1; stroke-width: 2px; opacity: 1;"/></g><g class="points"/><g class="text"/></g><g class="trace scatter tracecefb90" style="stroke-miterlimit: 2; opacity: 1;"><g class="fills"/><g class="errorbars"/><g class="lines"><path class="js-line" d="M0,27.2L2.53,38.41L5.07,70.52L7.6,66.62L10.14,109.84L12.67,117.78L15.21,120.59L20.28,122.78L22.81,123.44L32.95,124.69L35.49,124.86L76.05,126.58L78.58,126.63L169.84,127.7L172.38,127.72L446.15,130.56L448.68,130.64L550.08,132.71L552.62,132.74L565.29,132.73L567.83,131.97L570.36,132.6L572.9,129.41L575.43,117.03L577.97,128.75L580.5,127.48L583.04,127.09L621.06,128.6L623.6,128.63L714.85,129.33L717.39,129.34L757.95,129.52L760.48,132.83L773.16,133.52L775.69,133.76L795.97,135.38L798.51,135.74L943,144.83L945.53,145L983.56,147.59L986.09,148.13L1049.47,152.82L1052,152.82" style="vector-effect: non-scaling-stroke; fill: none; stroke: rgb(239, 85, 59); stroke-opacity: 1; stroke-width: 2px; opacity: 1;"/></g><g class="points"/><g class="text"/></g></g></g><g class="overplot"/><path class="xlines-above crisp" d="M0,0" style="fill: none;"/><path class="ylines-above crisp" d="M0,0" style="fill: none;"/><g class="overlines-above"/><g class="xaxislayer-above"><g class="xtick"><text text-anchor="middle" x="0" y="571" transform="translate(174.20999999999998,0)" style="font-family: 'Open Sans', verdana, arial, sans-serif; font-size: 12px; fill: rgb(42, 63, 95); fill-opacity: 1; white-space: pre; opacity: 1;">50</text></g><g class="xtick"><text text-anchor="middle" x="0" y="571" style="font-family: 'Open Sans', verdana, arial, sans-serif; font-size: 12px; fill: rgb(42, 63, 95); fill-opacity: 1; white-space: pre; opacity: 1;" transform="translate(300.96000000000004,0)">100</text></g><g class="xtick"><text text-anchor="middle" x="0" y="571" style="font-family: 'Open Sans', verdana, arial, sans-serif; font-size: 12px; fill: rgb(42, 63, 95); fill-opacity: 1; white-space: pre; opacity: 1;" transform="translate(427.71,0)">150</text></g><g class="xtick"><text text-anchor="middle" x="0" y="571" style="font-family: 'Open Sans', verdana, arial, sans-serif; font-size: 12px; fill: rgb(42, 63, 95); fill-opacity: 1; white-space: pre; opacity: 1;" transform="translate(554.45,0)">200</text></g><g class="xtick"><text text-anchor="middle" x="0" y="571" style="font-family: 'Open Sans', verdana, arial, sans-serif; font-size: 12px; fill: rgb(42, 63, 95); fill-opacity: 1; white-space: pre; opacity: 1;" transform="translate(681.2,0)">250</text></g><g class="xtick"><text text-anchor="middle" x="0" y="571" style="font-family: 'Open Sans', verdana, arial, sans-serif; font-size: 12px; fill: rgb(42, 63, 95); fill-opacity: 1; white-space: pre; opacity: 1;" transform="translate(807.95,0)">300</text></g><g class="xtick"><text text-anchor="middle" x="0" y="571" style="font-family: 'Open Sans', verdana, arial, sans-serif; font-size: 12px; fill: rgb(42, 63, 95); fill-opacity: 1; white-space: pre; opacity: 1;" transform="translate(934.69,0)">350</text></g><g class="xtick"><text text-anchor="middle" x="0" y="571" style="font-family: 'Open Sans', verdana, arial, sans-serif; font-size: 12px; fill: rgb(42, 63, 95); fill-opacity: 1; white-space: pre; opacity: 1;" transform="translate(1061.44,0)">400</text></g></g><g class="yaxislayer-above"><g class="ytick"><text text-anchor="end" x="49" y="4.199999999999999" transform="translate(0,507.92)" style="font-family: 'Open Sans', verdana, arial, sans-serif; font-size: 12px; fill: rgb(42, 63, 95); fill-opacity: 1; white-space: pre; opacity: 1;">−3</text></g><g class="ytick"><text text-anchor="end" x="49" y="4.199999999999999" style="font-family: 'Open Sans', verdana, arial, sans-serif; font-size: 12px; fill: rgb(42, 63, 95); fill-opacity: 1; white-space: pre; opacity: 1;" transform="translate(0,447.67)">−2</text></g><g class="ytick"><text text-anchor="end" x="49" y="4.199999999999999" style="font-family: 'Open Sans', verdana, arial, sans-serif; font-size: 12px; fill: rgb(42, 63, 95); fill-opacity: 1; white-space: pre; opacity: 1;" transform="translate(0,387.41)">−1</text></g><g class="ytick"><text text-anchor="end" x="49" y="4.199999999999999" style="font-family: 'Open Sans', verdana, arial, sans-serif; font-size: 12px; fill: rgb(42, 63, 95); fill-opacity: 1; white-space: pre; opacity: 1;" transform="translate(0,327.16)">0</text></g><g class="ytick"><text text-anchor="end" x="49" y="4.199999999999999" style="font-family: 'Open Sans', verdana, arial, sans-serif; font-size: 12px; fill: rgb(42, 63, 95); fill-opacity: 1; white-space: pre; opacity: 1;" transform="translate(0,266.90999999999997)">1</text></g><g class="ytick"><text text-anchor="end" x="49" y="4.199999999999999" style="font-family: 'Open Sans', verdana, arial, sans-serif; font-size: 12px; fill: rgb(42, 63, 95); fill-opacity: 1; white-space: pre; opacity: 1;" transform="translate(0,206.66)">2</text></g><g class="ytick"><text text-anchor="end" x="49" y="4.199999999999999" style="font-family: 'Open Sans', verdana, arial, sans-serif; font-size: 12px; fill: rgb(42, 63, 95); fill-opacity: 1; white-space: pre; opacity: 1;" transform="translate(0,146.4)">3</text></g><g class="ytick"><text text-anchor="end" x="49" y="4.199999999999999" style="font-family: 'Open Sans', verdana, arial, sans-serif; font-size: 12px; fill: rgb(42, 63, 95); fill-opacity: 1; white-space: pre; opacity: 1;" transform="translate(0,86.15)">4</text></g></g><g class="overaxes-above"/></g></g><g class="polarlayer"/><g class="ternarylayer"/><g class="geolayer"/><g class="funnelarealayer"/><g class="pielayer"/><g class="iciclelayer"/><g class="treemaplayer"/><g class="sunburstlayer"/><g class="glimages"/><defs id="topdefs-08b91a"><g class="clips"/><clipPath id="legend08b91a"><rect width="105" height="48" x="0" y="0"/></clipPath></defs><g class="layer-above"><g class="imagelayer"/><g class="shapelayer"/></g><g class="infolayer"><g class="legend" pointer-events="all" transform="translate(1123.04,60)"><rect class="bg" shape-rendering="crispEdges" width="105" height="48" x="0" y="0" style="stroke: rgb(68, 68, 68); stroke-opacity: 1; fill: rgb(255, 255, 255); fill-opacity: 1; stroke-width: 0px;"/><g class="scrollbox" transform="" clip-path="url(#legend08b91a)"><g class="groups"><g class="traces" transform="translate(0,14.5)" style="opacity: 1;"><text class="legendtext" text-anchor="start" x="40" y="4.680000000000001" style="font-family: 'Open Sans', verdana, arial, sans-serif; font-size: 12px; fill: rgb(42, 63, 95); fill-opacity: 1; white-space: pre;">Aligned</text><g class="layers" style="opacity: 1;"><g class="legendfill"/><g class="legendlines"><path class="js-line" d="M5,0h30" style="fill: none; stroke: rgb(99, 110, 250); stroke-opacity: 1; stroke-width: 2px;"/></g><g class="legendsymbols"><g class="legendpoints"/></g></g><rect class="legendtoggle" x="0" y="-9.5" width="99.86978912353516" height="19" style="fill: rgb(0, 0, 0); fill-opacity: 0;"/></g><g class="traces" transform="translate(0,33.5)" style="opacity: 1;"><text class="legendtext" text-anchor="start" x="40" y="4.680000000000001" style="font-family: 'Open Sans', verdana, arial, sans-serif; font-size: 12px; fill: rgb(42, 63, 95); fill-opacity: 1; white-space: pre;">Unaligned</text><g class="layers" style="opacity: 1;"><g class="legendfill"/><g class="legendlines"><path class="js-line" d="M5,0h30" style="fill: none; stroke: rgb(239, 85, 59); stroke-opacity: 1; stroke-width: 2px;"/></g><g class="legendsymbols"><g class="legendpoints"/></g></g><rect class="legendtoggle" x="0" y="-9.5" width="99.86978912353516" height="19" style="fill: rgb(0, 0, 0); fill-opacity: 0;"/></g></g></g><rect class="scrollbar" rx="20" ry="3" width="0" height="0" x="0" y="0" style="fill: rgb(128, 139, 164); fill-opacity: 1;"/></g><g class="g-gtitle"><text class="gtitle" x="62" y="30" text-anchor="start" dy="0em" style="font-family: 'Open Sans', verdana, arial, sans-serif; font-size: 17px; fill: rgb(42, 63, 95); opacity: 1; font-weight: normal; white-space: pre;">DRAFT Aligned vs Unaligned Loss</text></g><g class="g-xtitle"/><g class="g-ytitle"/></g></svg>